HIERARCHY
ROOT hip
{
  OFFSET 0 0 0
  CHANNELS 6 Xposition Yposition Zposition Zrotation Yrotation Xrotation
  JOINT abdomen
  {
    OFFSET 0 20.6881 -0.73152
    CHANNELS 3 Zrotation Xrotation Yrotation
    JOINT chest
    {
      OFFSET 0 11.7043 -0.48768
      CHANNELS 3 Zrotation Xrotation Yrotation
      JOINT neck
      {
        OFFSET 0 22.1894 -2.19456
        CHANNELS 3 Zrotation Xrotation Yrotation
        JOINT head
        {
          OFFSET -0.24384 7.07133 1.2192
          CHANNELS 3 Zrotation Xrotation Yrotation
          JOINT leftEye
          {
            OFFSET 4.14528 8.04674 8.04672
            CHANNELS 3 Zrotation Xrotation Yrotation
            End Site
            {
              OFFSET 1 0 0
            }
          }
          JOINT rightEye
          {
            OFFSET -3.6576 8.04674 8.04672
            CHANNELS 3 Zrotation Xrotation Yrotation
            End Site
            {
              OFFSET 1 0 0
            }
          }
        }
      }
      JOINT rCollar
      {
        OFFSET -2.68224 19.2634 -4.8768
        CHANNELS 3 Zrotation Xrotation Yrotation
        JOINT rShldr
        {
          OFFSET -8.77824 -1.95073 1.46304
          CHANNELS 3 Zrotation Xrotation Yrotation
          JOINT rForeArm
          {
            OFFSET -28.1742 -1.7115 0.48768
            CHANNELS 3 Zrotation Xrotation Yrotation
            JOINT rHand
            {
              OFFSET -22.5879 0.773209 7.07136
              CHANNELS 3 Zrotation Xrotation Yrotation
              JOINT rThumb1
              {
                OFFSET -1.2192 -0.487915 3.41376
                CHANNELS 3 Zrotation Xrotation Yrotation
                JOINT rThumb2
                {
                  OFFSET -3.37035 -0.52449 3.41376
                  CHANNELS 3 Zrotation Xrotation Yrotation
                  End Site
                  {
                    OFFSET -1.78271 -1.18214 1.43049
                  }
                }
              }
              JOINT rIndex1
              {
                OFFSET -7.75947 0.938293 5.60832
                CHANNELS 3 Zrotation Xrotation Yrotation
                JOINT rIndex2
                {
                  OFFSET -2.54057 -0.884171 1.56538
                  CHANNELS 3 Zrotation Xrotation Yrotation
                  End Site
                  {
                    OFFSET -1.62519 -0.234802 1.16502
                  }
                }
              }
              JOINT rMid1
              {
                OFFSET -8.24714 1.18213 3.41376
                CHANNELS 3 Zrotation Xrotation Yrotation
                JOINT rMid2
                {
                  OFFSET -3.10165 -0.590103 1.0647
                  CHANNELS 3 Zrotation Xrotation Yrotation
                  End Site
                  {
                    OFFSET -2.48547 -0.328903 0.83742
                  }
                }
              }
              JOINT rRing1
              {
                OFFSET -8.82822 0.546677 1.51678
                CHANNELS 3 Zrotation Xrotation Yrotation
                JOINT rRing2
                {
                  OFFSET -2.60934 -0.819778 -0.0198488
                  CHANNELS 3 Zrotation Xrotation Yrotation
                  End Site
                  {
                    OFFSET -2.33842 -0.294052 0.168128
                  }
                }
              }
              JOINT rPinky1
              {
                OFFSET -8.27202 -0.0477905 -0.4584
                CHANNELS 3 Zrotation Xrotation Yrotation
                JOINT rPinky2
                {
                  OFFSET -1.82734 -0.647385 -0.700984
                  CHANNELS 3 Zrotation Xrotation Yrotation
                  End Site
                  {
                    OFFSET -1.69225 -0.51767 -0.607171
                  }
                }
              }
            }
          }
        }
      }
      JOINT lCollar
      {
        OFFSET 2.68224 19.2634 -4.8768
        CHANNELS 3 Zrotation Xrotation Yrotation
        JOINT lShldr
        {
          OFFSET 8.77824 -1.95073 1.46304
          CHANNELS 3 Zrotation Xrotation Yrotation
          JOINT lForeArm
          {
            OFFSET 28.1742 -1.7115 0.48768
            CHANNELS 3 Zrotation Xrotation Yrotation
            JOINT lHand
            {
              OFFSET 22.5879 0.773209 7.07136
              CHANNELS 3 Zrotation Xrotation Yrotation
              JOINT lThumb1
              {
                OFFSET 1.2192 -0.487915 3.41376
                CHANNELS 3 Zrotation Xrotation Yrotation
                JOINT lThumb2
                {
                  OFFSET 3.37035 -0.52449 3.41376
                  CHANNELS 3 Zrotation Xrotation Yrotation
                  End Site
                  {
                    OFFSET 1.78271 -1.18214 1.43049
                  }
                }
              }
              JOINT lIndex1
              {
                OFFSET 7.75947 0.938293 5.60832
                CHANNELS 3 Zrotation Xrotation Yrotation
                JOINT lIndex2
                {
                  OFFSET 2.54057 -0.884171 1.56538
                  CHANNELS 3 Zrotation Xrotation Yrotation
                  End Site
                  {
                    OFFSET 1.62519 -0.234802 1.16502
                  }
                }
              }
              JOINT lMid1
              {
                OFFSET 8.24714 1.18213 3.41376
                CHANNELS 3 Zrotation Xrotation Yrotation
                JOINT lMid2
                {
                  OFFSET 3.10165 -0.590103 1.0647
                  CHANNELS 3 Zrotation Xrotation Yrotation
                  End Site
                  {
                    OFFSET 2.48547 -0.328903 0.83742
                  }
                }
              }
              JOINT lRing1
              {
                OFFSET 8.82822 0.546677 1.51678
                CHANNELS 3 Zrotation Xrotation Yrotation
                JOINT lRing2
                {
                  OFFSET 2.60934 -0.819778 -0.0198488
                  CHANNELS 3 Zrotation Xrotation Yrotation
                  End Site
                  {
                    OFFSET 2.33842 -0.294052 0.168128
                  }
                }
              }
              JOINT lPinky1
              {
                OFFSET 8.27202 -0.0477905 -0.4584
                CHANNELS 3 Zrotation Xrotation Yrotation
                JOINT lPinky2
                {
                  OFFSET 1.82734 -0.647385 -0.700984
                  CHANNELS 3 Zrotation Xrotation Yrotation
                  End Site
                  {
                    OFFSET 1.69225 -0.51767 -0.607171
                  }
                }
              }
            }
          }
        }
      }
    }
  }
  JOINT rButtock
  {
    OFFSET -8.77824 4.35084 1.2192
    CHANNELS 3 Zrotation Xrotation Yrotation
    JOINT rThigh
    {
      OFFSET 0 -1.70687 -2.19456
      CHANNELS 3 Zrotation Xrotation Yrotation
      JOINT rShin
      {
        OFFSET 0 -36.8199 0.73152
        CHANNELS 3 Zrotation Xrotation Yrotation
        JOINT rFoot
        {
          OFFSET 0.73152 -45.1104 -5.12064
          CHANNELS 3 Zrotation Xrotation Yrotation
          End Site
          {
            OFFSET -1.1221 -3.69964 12.103
          }
        }
      }
    }
  }
  JOINT lButtock
  {
    OFFSET 8.77824 4.35084 1.2192
    CHANNELS 3 Zrotation Xrotation Yrotation
    JOINT lThigh
    {
      OFFSET 0 -1.70687 -2.19456
      CHANNELS 3 Zrotation Xrotation Yrotation
      JOINT lShin
      {
        OFFSET 0 -36.8199 0.73152
        CHANNELS 3 Zrotation Xrotation Yrotation
        JOINT lFoot
        {
          OFFSET -0.73152 -45.1104 -5.12064
          CHANNELS 3 Zrotation Xrotation Yrotation
          End Site
          {
            OFFSET 1.1221 -3.69964 12.103
          }
        }
      }
    }
  }
}
MOTION
Frames:	4
Frame Time:	0.03333
-7.470000000000001 71.2177 19.9968 -37.050411 -73.702466 36.659166 6.392751 16.206179 -21.872518 4.097991 -6.990674 34.050829 1.053794 25.307445 135.202726 -29.478637 23.931203 -118.014021 5.106361 -0.638767 -14.251269 29.340693 -2.750409 -10.478795 0.784572 0.356969 7.030663 62.397964 20.472963 0.564698 2.520118 -0.529263 84.227384 -9.954833 27.482175 0.723608 117.035362 -55.163806 59.253859 -18.602181 -15.344711 -30.653377 -148.269912 -16.166749 125.276076 8.148018 32.280524 -7.213121 -142.949948 36.640228 132.577375 4.521059 15.337942 3.793309 -64.937611 -74.880881 -87.723727 -154.501204 6.522018 173.931097 -124.890867 -27.697372 -120.889492 -137.25356 10.797454 -141.223749 0.485135 22.208558 1.809645 -59.865786 13.367695 -34.655179 178.365232 23.665169 -90.260939 -173.903224 -21.350667 -141.830731 -172.264239 -25.391229 -88.855308 62.115934 -8.109847 4.219752 160.124784 -18.819067 -114.023008 -4.082721 -6.284097 -2.857621 4.496092 -23.261615 11.14727 136.564371 -9.741095 -140.934758 138.263731 -21.145961 167.043438 -28.184217 23.524316 17.863217 102.158673 -57.949097 105.165615 6.995407 -44.819852 -2.289639 -26.961537 3.102012 -13.096754 25.778464 2.425125 -84.992858 -58.524967 -12.089306 9.713668 27.360169 -12.928697 50.962482 1.616811 3.128848 -2.164945 66.124615 -54.653391 62.222989 57.084121 84.405239 94.162801 45.006497 48.233631 -156.201134
-7.7449 71.0625 20.6627 -37.610364 -73.912803 37.466306 3.119495 13.982588 88.606988 -5.892514 -4.548924 -76.234913 -18.330467 20.888375 -83.076926 35.58434 16.897787 89.628907 8.559195 -0.996684 -13.259737 28.885466 -3.903211 -15.07339 -161.569325 -32.419007 159.336636 -40.925421 4.294052 -11.489066 -173.799684 14.439193 -97.181669 -9.387183 26.039278 0.290226 -164.848788 -1.249537 94.439767 -64.631836 -0.009216 2.76892 -172.194268 -60.365456 124.047861 -159.388324 -40.283912 110.846791 -172.876154 -50.457818 149.567059 17.536449 -36.430501 5.031092 -137.600271 12.083582 173.867171 -154.059842 0.556688 177.761461 -86.153301 -48.925824 -84.01946 11.811668 86.257205 34.694009 153.629524 -23.320393 -173.233715 -115.69338 51.32055 148.623081 -169.860912 -34.485151 -81.792725 -176.798133 -12.9732 -142.456734 -0.016359 0.770659 2.2134 123.223547 -47.159494 -129.744803 99.385285 34.399596 -75.709949 -16.130376 3.641699 -6.509251 5.89456 -12.061299 9.551011 155.128412 -39.295843 -133.190239 142.377694 4.078538 175.733662 -175.669683 64.379505 153.995198 -0.273936 -20.740117 -5.196314 -126.272862 86.486472 108.611501 18.651457 6.794557 19.953813 -23.415103 0.850899 90.287747 62.918408 -17.36046 131.225148 179.215906 -17.039866 -88.925862 -84.935364 47.463198 -46.38558 158.892793 3.60451 80.749571 80.925285 35.964941 3.055443 -161.320363 -62.854572 88.2929
-8.071200000000001 71.3059 21.3351 -34.209444 -72.642714 34.036422 5.587875 15.911952 -1.311938 1.92066 -8.118308 12.692148 -9.639932 11.559424 -0.618653 13.696558 -22.68794 12.14808 10.233107 -0.563468 -6.286739 30.444686 -2.458882 -9.018978 1.433664 -0.914237 7.128451 -110.331671 -14.454753 -178.440594 5.764762 1.885129 -117.787387 169.469049 -23.235346 141.987284 93.47986 -56.357375 39.624495 -143.425278 -27.47168 134.830088 -159.550035 -44.135545 128.381611 102.080685 -71.300532 29.27901 -161.866431 -5.846268 147.272208 -12.407694 32.831043 13.950816 -138.711019 6.285043 175.497048 13.549259 13.143909 -1.416941 -1.168423 -9.634951 -3.057637 -25.223637 -42.617427 -15.387258 -0.839296 -0.249643 6.988779 -67.096778 13.142239 -13.033341 -167.729555 3.635874 -89.224877 -177.918454 -9.099234 -142.634583 12.062433 13.159666 0.588319 -132.607418 -78.175443 -40.278173 54.483044 34.709014 -36.834557 -10.462973 15.281663 -8.109043 149.665977 41.704056 -133.003941 74.799838 54.304197 -45.82246 -3.80169 13.128268 1.334208 16.142346 40.914237 -27.023628 136.154002 24.93423 166.183597 82.599899 -57.731706 103.42335 168.937241 73.393311 -0.0 -156.370067 69.222628 110.152248 55.552399 -33.539742 159.358438 -94.436424 -65.071376 -11.60274 149.710275 71.162181 26.035466 -139.996406 -2.295065 -92.732 -89.830005 1.210383 -74.936764 64.534659 12.170198 171.864798
-8.4546 71.7054 21.9637 -32.584729 -71.64296 32.208431 4.281358 11.504773 135.663816 -4.665124 0.59796 -125.288179 2.658812 18.162994 80.538456 -28.979381 -5.553265 -72.99959 5.106512 -0.245296 -5.496652 30.696211 -0.793011 -2.888662 -19.11985 40.201355 25.41546 -155.998108 -47.796223 127.353707 -128.450899 62.77341 -141.272648 -3.557847 7.74007 -1.452577 -174.469769 -14.838629 95.812099 -40.291732 -21.574135 -15.565543 -11.090716 22.095868 6.496012 -169.806274 5.654809 109.67873 -1.208261 -0.984077 -3.319589 -163.335799 -4.067584 149.485938 4.534849 -8.797499 -0.093838 -157.280988 -16.951535 179.554583 -149.257072 84.632169 -167.364269 -150.133564 14.699549 -134.639939 154.43999 7.485482 -166.530074 -179.295868 -88.530744 133.988694 76.652685 -80.916029 24.139232 8.984966 13.052843 1.449852 18.168982 19.20716 -2.104607 28.776212 16.475417 -49.092216 2.094971 -8.867716 -1.369802 146.0527 -8.977167 -120.430115 2.728136 -11.037888 6.195917 33.994814 56.486637 -48.287823 139.728071 -9.965711 170.957071 -9.148597 -18.403184 25.6782 55.383892 72.876575 -97.889975 111.418492 -20.054836 119.088131 -39.039081 6.472548 -18.343116 38.313938 4.466392 -0.0 -16.435045 52.405697 53.668748 -47.581516 26.134163 -48.689032 -51.043533 24.619264 -39.295949 124.06225 -10.661901 -16.900546 -84.766469 10.071178 -22.774854 113.542545 -37.019097 -161.535438
